/* XPM */
static char * buddy2_xpm[] = {
"64 64 147 2",
"  	c #FFCBA9",
". 	c #EF9597",
"+ 	c #FCC9A7",
"@ 	c #FDC9A7",
"# 	c #F8C6A4",
"$ 	c #F9C6A5",
"% 	c #FBC8A7",
"& 	c #FECAA8",
"* 	c #050500",
"= 	c #F6C4A3",
"- 	c #080701",
"; 	c #FBC7A6",
"> 	c #F5C3A2",
", 	c #231B12",
"' 	c #18120A",
") 	c #261C16",
"! 	c #F2AD7D",
"~ 	c #F0AB7C",
"{ 	c #EFAB7C",
"] 	c #EFAB7B",
"^ 	c #F0AC7C",
"/ 	c #EDA97A",
"( 	c #030300",
"_ 	c #FDCAA8",
": 	c #20180F",
"< 	c #0B0A03",
"[ 	c #F0BF9F",
"} 	c #FDC9A8",
"| 	c #17110A",
"1 	c #F4AE7E",
"2 	c #040400",
"3 	c #291E16",
"4 	c #F3AE7E",
"5 	c #F4C2A2",
"6 	c #2F241B",
"7 	c #D14B34",
"8 	c #F1AC7C",
"9 	c #110D05",
"0 	c #000000",
"a 	c #F1AB7B",
"b 	c #F1AB7C",
"c 	c #281E16",
"d 	c #F2AD7C",
"e 	c #EF904E",
"f 	c #F2AD7E",
"g 	c #D14C35",
"h 	c #D04B34",
"i 	c #2C2118",
"j 	c #F2AE7E",
"k 	c #F4AF7E",
"l 	c #EE8E4D",
"m 	c #140D04",
"n 	c #170F05",
"o 	c #EE9253",
"p 	c #EF904F",
"q 	c #F09251",
"r 	c #110B02",
"s 	c #0B0702",
"t 	c #090701",
"u 	c #EF914F",
"v 	c #EE904F",
"w 	c #EF8F4E",
"x 	c #0D0801",
"y 	c #0E0801",
"z 	c #070600",
"A 	c #0D0600",
"B 	c #33271D",
"C 	c #010100",
"D 	c #110A01",
"E 	c #ED8F4D",
"F 	c #060500",
"G 	c #090600",
"H 	c #EE8F4E",
"I 	c #EF914E",
"J 	c #F0914F",
"K 	c #120A02",
"L 	c #EE904E",
"M 	c #170801",
"N 	c #FBC8A6",
"O 	c #EC8E4C",
"P 	c #0C0701",
"Q 	c #EB8E4C",
"R 	c #F0914E",
"S 	c #F19250",
"T 	c #170802",
"U 	c #CC4933",
"V 	c #020400",
"W 	c #120902",
"X 	c #160701",
"Y 	c #F0924F",
"Z 	c #150701",
"` 	c #0F0904",
" .	c #140701",
"..	c #492B2A",
"+.	c #000100",
"@.	c #ED8C4C",
"#.	c #F0904E",
"$.	c #1D0902",
"%.	c #FFCAA9",
"&.	c #27190F",
"*.	c #0B0600",
"=.	c #0C0600",
"-.	c #D14C34",
";.	c #D04A34",
">.	c #160801",
",.	c #080500",
"'.	c #0E0A05",
").	c #CF4A33",
"!.	c #090500",
"~.	c #1E170F",
"{.	c #D14830",
"].	c #0E0601",
"^.	c #558789",
"/.	c #D04C37",
"(.	c #CE4E38",
"_.	c #0C0C07",
":.	c #CF4D37",
"<.	c #080C08",
"[.	c #574436",
"}.	c #D0492E",
"|.	c #D24629",
"1.	c #D0492F",
"2.	c #000E0D",
"3.	c #392B21",
"4.	c #79B8CE",
"5.	c #4F494B",
"6.	c #4E484A",
"7.	c #4C392D",
"8.	c #3C2E23",
"9.	c #433429",
"0.	c #0A0600",
"a.	c #4E494B",
"b.	c #050601",
"c.	c #060804",
"d.	c #0D0701",
"e.	c #080600",
"f.	c #544134",
"g.	c #190E03",
"h.	c #191006",
"i.	c #0A0701",
"j.	c #110A02",
"k.	c #4D4749",
"l.	c #060601",
"m.	c #080803",
"n.	c #0A0904",
"o.	c #0A0A06",
"p.	c #4C4748",
"                                                                                                                                ",
"                                                                                                                                ",
"                                                                                                                                ",
"                . . .                                                           . . .                                           ",
"                . . .                                                           . . .                                           ",
"                . . .                                                           . . .                                           ",
"          . . .                                                           . . .                                                 ",
"          . . .                                                           . . .                                                 ",
"          . . .                                                           . . .                                                 ",
"                                                                                                                                ",
"                                      + + @ @ @ @ @ @ @ @ @ @ @ + # # $ $ $ % + + + @ @ &                                       ",
"                                      * * * * * * * * * * * * * * * * * * * * * * * * * = &                                     ",
"                                      * * * * * * * * * * * * * * * * * * * * * * * * * @   & @ &                               ",
"                                = @   * * * * * * * - * * * * * * * * * * * * * * * * * ; @ = > @                               ",
"                                , ' ) ! ! ! ~ ~ ~ { ~ ~ { { ~ ~ { { { { { { { { { ] ^ / * * * @                                 ",
"                        &       * * ( ! ! ! ! ! ! ! ! ! ! ! ! ! ! ! ! ! ! ! ! ! ! ! ! ^ * * * @   _ @ &                         ",
"                        & + @   : < ( ! ! ! ! ! ! ! ! ! ! ! ! ! ! ! ! ! ! ! ! ! ! ! ! ^ * * * $ _ [ > }                         ",
"                          * * | ^ ! ! ! ! ! ! ! ! ! 1 1 1 1 1 1 1 1 1 1 1 1 1 1 1 1 ! ! ! ! ! * * * +                           ",
"                  &       * * 2 ! ! ! ! ! ! ! ! ! ! ! ! ! ! ! ! ! ! ! ! ! ! ! ! ! ! ! ! ! ! ! * * * @                           ",
"                  & } @   3 * 2 ! ! ! ! ! ! ! ! ! ! ! ! ! ! ! ! ! ! ! ! ! ! ! ! ! ! ! 4 ! ! ! * * * ; _ 5                       ",
"                    6 ' ) 7 7 7 ! ! ! ! ! ! ! ! ! ! ! ! ! ! ! ! ! ! ! ! ! ! ! ! ! ! ! 1 ! ! 8 7 7 7 * * * @                     ",
"                    9 * 0 7 7 7 ! ! ! ! ! ! ! ! ! ! ! ! ! ! ! ! ! ! ! ! ! ! ! ! ! ! ! 4 ! ! a 7 7 7 * * * @                     ",
"                    9 * 0 7 7 7 ! ! ! ! ! ! ! ! ! ! ! ! ! ! ! ! ! ! ! ! ! ! ! ! ! ! ! 4 ! ! b 7 7 7 * * * @                     ",
"                    ' * 0 7 7 7 ! ! ! ! ! ! ! ! ! ! ! ! ! ! ! ! ! ! ! ! ! ! ! ! ! ! ! 4 ! ! 8 7 7 7 * * c +                     ",
"                    ' * 2 7 7 7 ! ! ! ! ! ! ! ! ! ! ! ! ! ! ! ! ! ! ! ! ! ! ! ! ! ! ! d ! ! 8 7 7 7 * * c @                     ",
"                    9 * 2 7 7 7 e e e ! ! ! ! ! ! ! ! ! ! ! ! f f ! ! ! ! ! ! ! ! ! ! d e e e g 7 h * * c @                     ",
"                    ' * 2 7 7 7 e e e ! ! ! ! ! ! ! ! ! ! ! ! ! ! ! ! ! ! ! ! ! ! ! ! d e e e 7 7 7 * * c @                     ",
"                    i * ( 7 7 7 e e e ! ! ! j k k k j j j f ! ! ! ! j j f 1 k k j j j ! e e e 7 7 7 * * c @           . . .     ",
"                    i * 2 7 7 7 l e e e e e e * m n o e e e e e e e e p q r s t e e e e e u v 7 7 7 * * c @           . . .     ",
"                    i * 0 7 7 7 w e e e e e e x * y e e e e e e e e e e e z * ( e e e e e u v 7 7 7 A * c @           . . .     ",
"                    B * C 7 7 7 e e e e e e e z * D e e e e e e e e e e e x * 0 e e e e e u v 7 7 7 A * c @                 . . ",
"                    * * ( 7 7 7 e e e e e e E F * G H e e I e e e e e e J K * 0 L e e e u u v 7 7 7 M * , N                 . . ",
"                    * * C 7 7 7 w e e e e e O z * P Q e e R I e e I u u S F * 0 H e e e e e v 7 7 7 T * , @                 . . ",
"                    ' * C U 7 7 l e e e e e e V ( V Q e e J u u u u u u S W ( 0 e e e e I R e 7 7 7 X * c @                     ",
"                    c * C 7 7 7 7 7 7 e e e e e e e L e e Y u u u u u u u e e e e e e e 7 7 7 7 7 7 Z * c @                     ",
"                . . ` * 0 7 7 7 7 7 7 e e e e e e e e e e e e e e e e e e e e e e e e e 7 7 7 7 7 7  .* c @                     ",
"                . . ..* +.7 7 7 7 7 7 @.e e e e e e R R R R R R R R R R #.e e e R R R e 7 7 7 7 7 7 $.* * @                     ",
"              %.. . .     &.*.=.7 7 7 7 7 7 7 7 7 -.7 7 7 7 7 -.7 7 7 7 7 7 7 7 7 7 7 7 7 7 ;.>.,.*                             ",
"          . . . %.        * * '.7 7 7 7 7 7 7 7 7 7 7 7 7 7 7 7 7 7 7 7 7 7 7 7 7 7 7 7 7 7 ).!.* ~.                            ",
"          . . .           B * +.h 7 7 7 7 7 7 7 7 7 7 7 7 7 7 7 7 7 7 7 7 7 7 7 7 7 7 7 7 7 {.].* c                             ",
"          . . .           B * 0 ^.^.^.^.^.^.^.^.^.^.^.^.^./.7 7 7 7 (.^.^.^.^.^.^.^.^.^.^.^.^._.* i                             ",
"                          i * 0 ^.^.^.^.^.^.^.^.^.^.^.^.^.:.7 7 7 7 :.^.^.^.^.^.^.^.^.^.^.^.^.<.* c                             ",
"                  &       [.( 0 ^.^.^.^.^.^.^.^.^.^.^.^.^.}.|.|.|.|.1.^.^.^.^.^.^.^.^.^.^.^.^.2.0 )       } &                   ",
"                    c * 3.7 7 7 4.4.4.5.6.6.6.4.4.4.4.4.4.4.4.4.4.4.4.4.4.4.4.4.6.6.6.6.4.4.4.7 7 7 7.8.9.&                     ",
"                    9 * C 7 7 7 4.4.4.6.6.6.6.4.4.4.4.4.4.4.4.4.4.4.4.4.4.4.4.4.6.6.6.6.4.4.4.7 7 7 =.* 9                       ",
"                    , * +.7 7 7 4.4.4.6.6.6.6.4.4.4.4.4.4.4.4.4.4.4.4.4.4.4.4.4.6.6.6.6.4.4.4.7 7 7 0.* '                       ",
"                    9.* 0 e e e e e e 6.6.6.6.6.6.6.6.6.a.b.* * * * c.6.6.6.6.6.6.6.6.6.e e e e e e d.* '                       ",
"                    ~.* 0 e e e e e e 6.6.6.6.6.6.6.6.6.6.* * * * * * 6.6.6.6.6.6.6.6.6.e e e e e e e.* 9                       ",
"                    f.* 0 e e e e e e 6.6.6.6.6.6.6.6.6.6.* * * * * * 6.6.6.6.6.6.6.6.6.e e e e e e g.* *                       ",
"                          h.* i.i.* j.6.6.6.6.6.6.6.6.6.k.l.* * * b.m.k.6.6.6.6.6.6.6.6.* * * F * K                             ",
"                  &       9 * * * * 2 6.6.6.6.6.6.6.6.6.k.n.* * b.b.o.k.6.6.6.6.6.6.6.6.* * * * * *                             ",
"                          6 * * * * +.6.6.6.6.6.6.6.6.6.p.n.* * * * n.k.6.6.6.6.6.6.6.6.* * * * * *                             ",
"                        &                                                                                                       ",
"                        _                                                                                                       ",
"                        &                                                                                                       ",
"                                                                                                                                ",
"                                                                                                                                ",
"                                                                                                                                ",
". . .                                                                                                                           ",
". . .                                                 . . .                                                           . . .     ",
". . .                                                 . . .                                                           . . .     ",
"                                                      . . .                                                           . . .     ",
"                                                            . . .                                                           . . ",
"                                                            . . .                                                           . . "};
