/* XPM */
static char * cat_xpm[] = {
"64 64 174 2",
"  	c #FFCBA9",
". 	c #EF9597",
"+ 	c #FDC9A7",
"@ 	c #F9C6A5",
"# 	c #FECAA8",
"$ 	c #F3C1A1",
"% 	c #000000",
"& 	c #534034",
"* 	c #32251D",
"= 	c #FCC9A7",
"- 	c #FBC8A7",
"; 	c #FAC7A6",
"> 	c #F7C4A3",
", 	c #4D351D",
"' 	c #2A1F17",
") 	c #221812",
"! 	c #0D0805",
"~ 	c #A96F37",
"{ 	c #FEC9A7",
"] 	c #160F0A",
"^ 	c #A87849",
"/ 	c #9F7142",
"( 	c #020100",
"_ 	c #010101",
": 	c #040607",
"< 	c #563A24",
"[ 	c #FDCAA8",
"} 	c #B17E4B",
"| 	c #B07D4A",
"1 	c #825B35",
"2 	c #EFEFED",
"3 	c #F6F6F4",
"4 	c #F2F2F0",
"5 	c #6A4217",
"6 	c #FCC8A7",
"7 	c #F5C2A2",
"8 	c #100703",
"9 	c #A97847",
"0 	c #DA9B5E",
"a 	c #C48B53",
"b 	c #694929",
"c 	c #020202",
"d 	c #0A0A08",
"e 	c #F3F3F0",
"f 	c #7E5024",
"g 	c #AA723E",
"h 	c #FCC8A6",
"i 	c #F4C2A1",
"j 	c #FBC7A6",
"k 	c #090401",
"l 	c #C68D55",
"m 	c #8E643A",
"n 	c #704E2C",
"o 	c #674728",
"p 	c #030201",
"q 	c #F7F7F5",
"r 	c #030303",
"s 	c #6C492A",
"t 	c #F5C3A2",
"u 	c #24170C",
"v 	c #B47F4C",
"w 	c #A17243",
"x 	c #4B331B",
"y 	c #0A0B09",
"z 	c #050505",
"A 	c #F4F4F2",
"B 	c #010000",
"C 	c #714922",
"D 	c #F9C5A3",
"E 	c #FBC8A6",
"F 	c #2D1D0D",
"G 	c #0B0B0A",
"H 	c #F5F5F3",
"I 	c #FDC9A8",
"J 	c #8D633A",
"K 	c #4C331B",
"L 	c #020000",
"M 	c #000101",
"N 	c #B37F4C",
"O 	c #0F1214",
"P 	c #646F77",
"Q 	c #020101",
"R 	c #D5985B",
"S 	c #9F7042",
"T 	c #0C0F11",
"U 	c #626C74",
"V 	c #636E76",
"W 	c #656F77",
"X 	c #657077",
"Y 	c #1C140F",
"Z 	c #714F2D",
"` 	c #51371E",
" .	c #000102",
"..	c #010509",
"+.	c #010102",
"@.	c #636E75",
"#.	c #646E75",
"$.	c #D2B997",
"%.	c #D1B896",
"&.	c #D0B896",
"*.	c #32261E",
"=.	c #606B73",
"-.	c #CFB796",
";.	c #D3BA98",
">.	c #D3BA97",
",.	c #2F2B27",
"'.	c #F8C6A5",
").	c #4D3C30",
"!.	c #010202",
"~.	c #667077",
"{.	c #D0B796",
"].	c #F8C5A4",
"^.	c #35281F",
"/.	c #241C18",
"(.	c #6A7278",
"_.	c #D1B897",
":.	c #060403",
"<.	c #CFB695",
"[.	c #F9C7A5",
"}.	c #677178",
"|.	c #010100",
"1.	c #0D0B06",
"2.	c #070503",
"3.	c #F5C3A3",
"4.	c #2E2B27",
"5.	c #D0B795",
"6.	c #060503",
"7.	c #695A47",
"8.	c #020201",
"9.	c #0F0C08",
"0.	c #685946",
"a.	c #675946",
"b.	c #685A47",
"c.	c #D85762",
"d.	c #D95763",
"e.	c #D85862",
"f.	c #302C28",
"g.	c #FFCAA9",
"h.	c #FAC7A5",
"i.	c #0C0D0E",
"j.	c #2F2B26",
"k.	c #322D29",
"l.	c #312D29",
"m.	c #38322C",
"n.	c #302D28",
"o.	c #352F2A",
"p.	c #483D34",
"q.	c #090705",
"r.	c #35302A",
"s.	c #675846",
"t.	c #2F2C27",
"u.	c #F6C4A3",
"v.	c #3A332D",
"w.	c #D1B997",
"x.	c #BB8F36",
"y.	c #BB8F35",
"z.	c #342F2A",
"A.	c #685947",
"B.	c #E6B799",
"C.	c #BD9138",
"D.	c #BC9037",
"E.	c #37322C",
"F.	c #D3B997",
"G.	c #322E2A",
"H.	c #2F2C28",
"I.	c #F8C6A4",
"J.	c #F7C5A4",
"K.	c #39332D",
"L.	c #6B5B48",
"M.	c #423D38",
"N.	c #6A5A47",
"O.	c #433E38",
"P.	c #483D35",
"Q.	c #3E362F",
"                                                                                                                                ",
"                                                                                                                                ",
"                                                                                                                                ",
"                . . .                                                           . . .                                           ",
"                . . .                                                           . . .                                           ",
"                . . .                                                           . . .                                           ",
"          . . .                                                           . . .                                                 ",
"          . . .                                                           . . .                                                 ",
"          . . .                                                           . . .                                                 ",
"                                                                                                                                ",
"                                                                                                                                ",
"                                                                                                                                ",
"                                                                                                                                ",
"                                                                                                                                ",
"                                                                                                                                ",
"                                                                                                                                ",
"                                                                            + @ @ @ @                                           ",
"                                                                      # $ % % % % & * % # =                                     ",
"                                                                - ;   > % , ' ) ! % ! % ~ # {                                   ",
"                                                                    ] % ^ / ( % _ % _ : < ~ # #                                 ",
"                                                              + [ % } } | 1 % % 2 3 3 4 % 5 ~ + #                               ",
"                                                          6 [ 7 8 9 0 a b % c d e _ _ 3 % % f g h                               ",
"                                                          i j k l m n o p % 3 q % _ r % q q % s ~ +                             ",
"                                                          t u v w x % % % % c y q c z A % % % B C ~ D #                         ",
"                                                  6 # 6 E % l w F % B B B % c G % H q % % % % % B C ~                           ",
"                                                =     I k l J K % % L % % % % q 4 % % q q % % c M % % [                         ",
"                                              # #   % % N w x % % % % % O P P P P P P P P P P % % % ! #                         ",
"                                              -   Q R R S F % % T U V P P P P P P P P P W W X P P % Y 6               . . .     ",
"                                              # - Q Z Z `  ...+.% @.P P #.$.$.$.$.% %.$.$.$.&.P P % *.#               . . .     ",
"                                                6 % % % % % =.P P -.$.&.$.$.$.%._ &.$.$.;.>.$.%.,.'.#                 . . .     ",
"                                              # 6 ).B _ !.% P P ~.{.$.$.$.$.%._ %.$.$.$.$.$.$.$.,.].                        . . ",
"                                                # + ^./.P (.$.&.-.$.$._.:._ % <.$.$.$.$.$.$.$.$.,.[.                        . . ",
"                                                    = @ X }.$.$.$.$.$.$.|.% % %.$.$.{.1.2.$.$.$.,.3.                        . . ",
"                                                        i 4.4.4.4.4.&.5.% % 6.7.7.7.7.8.2.$.$.$.,.t                             ",
"                                                        E I 4.$.$.$.%.9.0.a.a.b.c.d.7.7.%.$.$.$.,.=                             ",
"                . . .                                   j t 4.%.$.%.% a.a.a.a.b.e.c.7.7.$.$.$.$.,.=                             ",
"                . . .                               #   # % % % f.4.4.$.$.0.b.b.7.7.7.7.$.$.%.4.                                ",
"              g.. . .                               I h.4.$.$.% i.j.%.$.$.$.$.$.%.$.$.$.%.$.4.3.                                ",
"          . . . g.                  # = I           = 4.$.$.$.5.% p %.$.$.$.$.$.$.$.$.$.&.4.h.                                  ",
"          . . .                   = k.l.m.  #     I n.$.$.$.$.$.$.p 4.4.4.,.,.,.,.,.4.,.4.#                                     ",
"          . . .                   o.7.7.7.p.'.  ; 4.{.$.>.$.$.$.$.% % q.% % % % % % % % -                                       ",
"                            [ i r.s.7.7.t.u.    v.w.$.$.$.$.$.$._.%.5.$.%.x.y.%.$.w.4.4.                                        ",
"                            > z.7.7.A.4.B.#   ].4.$.$.$.$.$.$.$.$.$.$.$.$.C.D.$.$.%.,.4.#                                       ",
"                            E 4.0.7.4.      = E.%.$.$.$.$.$.$.$.$.$.F.$.$.$.$.$.$.$.,.4.#                                       ",
"                            t 4.%.$.%.G.# # H.%.w.$.$.$.$.$.$.$.$.$.$.$.$.$.$.$.$.%.t.4.                                        ",
"                            ].4.$.$.$.%.4.4.$.%.$.$.$.$.$.$.$.$.$.$.$.$.$.$.$.$.$.$.,.4.                                        ",
"                              I.G.$.$.$.$.%.$.$.$.$.$.$.$.$.$.$.$.$.$.$.$.$.$.$.$.$.4.4.                                        ",
"                                J.K.$.%.$.w.%.$.$.$.$.$.$.$.$.$.$.$.$.$.$.$.$.$.$.%.4.4.                                        ",
"                                  J.4.4.4.4.4.t.L.L.L.$._.L.L.L.$.$.$.L.L.w.$.$.$.L.4.4.                                        ",
"                                              4.L.L.L.$.%.L.L.L.%.%.L.L.L.%.%.L.L.L.4.4.                                        ",
"                                              4.L.L.L.M.M.L.L.L.M.M.N.L.L.M.O.L.L.L.l.l.                                        ",
"                                                G.H.4.  J.G.4.4.  P.4.4.l.  Q.4.4.4.                                            ",
"                                                                                                                                ",
"                                                                                                                                ",
"                                                                                                                                ",
"                                                                                                                                ",
"                                                                                                                                ",
"                                                                                                                                ",
". . .                                                                                                                           ",
". . .                                                 . . .                                                           . . .     ",
". . .                                                 . . .                                                           . . .     ",
"                                                      . . .                                                           . . .     ",
"                                                            . . .                                                           . . ",
"                                                            . . .                                                           . . "};
