/* XPM */
static char * end_xpm[] = {
"64 64 22 1",
" 	c #FFCBA9",
".	c #EF9597",
"+	c #90625D",
"@	c #DCB98A",
"#	c #9E34B9",
"$	c #FECAAA",
"%	c #CA7FDC",
"&	c #BB65D0",
"*	c #B452CC",
"=	c #C49A6C",
"-	c #802497",
";	c #FBC6AC",
">	c #AA7959",
",	c #E8CFA6",
"'	c #F3E5C2",
")	c #AD6DBD",
"!	c #AC737B",
"~	c #B68962",
"{	c #754C60",
"]	c #6B4B5B",
"^	c #FFCAA9",
"/	c #F2C1A5",
"                                                                ",
"                                                                ",
"                                                                ",
"        ...                             ...                     ",
"        ...                             ...                     ",
"        ...                             ...                     ",
"     ...                             ...                        ",
"     ...                             ...                        ",
"     ...                     ++++++  ...                        ",
"                          +++@@@@@@+++                          ",
"                       +++@@@@@@@@@@@@+++                       ",
"                    +++@@@@@@######@@@@@@+++                    ",
"         $ $     +++@@@@@@###%&&&&%###@@@@@@+++                 ",
"         $    +++@@@@@@###&*#%&&&&%#*&###@@@@@@+++              ",
"             +@@@@@@####%%&*#&****&#*&%%####@@@@@@+             ",
"             +@@@###&&*#%%&*#%&&&&%#*&%%#*&&###@@@+             ",
"             +=##*#%%&*#&&&*#%&&&&%#*&&&#*&%%#*##=+             ",
"              +-&*#%%&*#%%&*#&****&#*&%%#*&%%#*&-+              ",
"           ;   -&*#&&&*#%%&*#%&&&&%#*&%%#*&&&#*&-               ",
"               -&*#%%&*#&&&*#%&&&&%#*&&&#*&%%#*&-               ",
"               -&*#%%&*#%%&*#>>>>>>#*&%%#*&%%#*&-               ",
"               -&*#&&&*#%%>>>,,,,,,>>>%%#*&&&#*&-               ",
"               -&*#%%&*>>>,,,'''''',,,>>>*&%%#*&-               ",
"               -&*#%>>>,,,'''@@@@@@''',,,>>>%#)&-               ",
"               -&>>>,,,'''@@@@@@@@@@@@''',,,>>!&-               ",
"              >>>,,,'''@@@@@@++++++@@@@@@''',,,>>>              ",
"             >,,,'''@@@@@@++++++++++++@@@@@@''',,,>             ",
"             >'''@@@@@@++++++++++++++++++@@@@@@'''>        ...  ",
"             +@@@@@@++++++++++++++++++++++++@@@@@@+        ...  ",
"             +@@@+++>>>>>>>>>>>>>>>>>>>>>>>>+++@@@+        ...  ",
"              +++~============================~+++            ..",
"                {==============================]              ..",
"                {>>>>>>>>>>>>>>>>>>>>>>>>>>>>>>{              ..",
"                {=============================={                ",
"                {=============================={                ",
"        ...     {==={{{=================={{{==={                ",
"        ...     {>>{+++{>>>>>{{{{{{>>>>>{+++{>>{                ",
"       ^...     {=={+++{===={++++++{===={+++{=={                ",
"     ...^       {=={+++{==={++++++++{==={+++{=={                ",
"     ...        {=={==={==={++++++++{==={==={=={                ",
"     ...        {>>>@@@>>>>{++++++++{>>>>@@@>>>{                ",
"                {=========={++++++++{=========={                ",
"                {=========={++++++++{=========={                ",
"                {=========={+>>>>>>+{=========={                ",
"                 {{{{{{{{{{{>======>{{{{{{{{{{{                 ",
"                 //{~~{/////+=~~~~=+/////{~~{//                 ",
"                 //{=={/////+======+/////{=={//                 ",
"                 //{=={/////+=~~~~=+/////{=={//                 ",
"                 //{=={/////+======+/////{=={//                 ",
"                 //{=={/////+=~~~~=+/////{=={//                 ",
"                  /{=={/////+======+/////{=={/                  ",
"                   /{{//////+=~~~~=+//////{{/                   ",
"                           /+======+/                           ",
"                           /+=~~~~=+/                           ",
"                           /+======+/                           ",
"                            /++++++/                            ",
"                                                                ",
"                                                                ",
"...                                                             ",
"...                        ...                             ...  ",
"...                        ...                             ...  ",
"                           ...                             ...  ",
"                              ...                             ..",
"                              ...                             .."};
