/* XPM */
static char * ground_xpm[] = {
"64 64 4 1",
" 	c #FFCBA9",
".	c #EF9597",
"+	c #FEC9A8",
"@	c #FFCAA9",
"                                                                ",
"                                                                ",
"                                                                ",
"        ...                             ...                     ",
"        ...                             ...                     ",
"        ...                             ...                     ",
"     ...                             ...                        ",
"     ...                             ...                        ",
"     ...                             ...                        ",
"                                                                ",
"                                                                ",
"                                                                ",
"                                                                ",
"                                                                ",
"                                                                ",
"                                                                ",
"                                                                ",
"                                                                ",
"                                                                ",
"                                                                ",
"                                                                ",
"                                                                ",
"                                                                ",
"                                                                ",
"                                                                ",
"                                                                ",
"                                                                ",
"                           ...                             ...  ",
"                           ...                             ...  ",
"                           ...+                            ...  ",
"                             @...                             ..",
"                              ...                             ..",
"                              ...                             ..",
"                                                                ",
"                                                                ",
"        ...                             ...                     ",
"        ...                             ...                     ",
"       @...                            @...                     ",
"     ...@                            ...                        ",
"     ...                             ...                        ",
"     ...                             ...                        ",
"                                                                ",
"                                                                ",
"                                                                ",
"                                                                ",
"                                                                ",
"                                                                ",
"                                                                ",
"                                                                ",
"                                                                ",
"                                                                ",
"                                                                ",
"                                                                ",
"                                                                ",
"                                                                ",
"                                                                ",
"                                                                ",
"                                                                ",
"...                                                             ",
"...                        ...                             ...  ",
"...                        ...                             ...  ",
"                           ...                             ...  ",
"                              ...                             ..",
"                              ...                             .."};
