/* XPM */
static char * tree_xpm[] = {
"64 64 481 2",
"  	c #FFCBA9",
". 	c #FECAA8",
"+ 	c #FBC8A7",
"@ 	c #FDCAA8",
"# 	c #CEA489",
"$ 	c #483C33",
"% 	c #E4B597",
"& 	c #A9866F",
"* 	c #A4826B",
"= 	c #A7846D",
"- 	c #B69178",
"; 	c #CFA588",
"> 	c #FAC7A5",
", 	c #D8AB8E",
"' 	c #D0A589",
") 	c #BE987E",
"! 	c #A4826D",
"~ 	c #A5836D",
"{ 	c #A3826C",
"] 	c #CDA488",
"^ 	c #EF9597",
"/ 	c #F8C6A4",
"( 	c #EDBC9D",
"_ 	c #ECBC9C",
": 	c #EEBD9D",
"< 	c #DFB194",
"[ 	c #957763",
"} 	c #745D4E",
"| 	c #BA937B",
"1 	c #F9C6A5",
"2 	c #FCC8A7",
"3 	c #FDC9A8",
"4 	c #D18485",
"5 	c #DF8B8D",
"6 	c #DD8A8B",
"7 	c #D7AB8E",
"8 	c #816856",
"9 	c #7A6252",
"0 	c #7B6353",
"a 	c #8F725F",
"b 	c #DEB193",
"c 	c #EDBD9D",
"d 	c #F3C2A1",
"e 	c #8A645B",
"f 	c #6D4646",
"g 	c #754E4C",
"h 	c #CFA488",
"i 	c #B28E76",
"j 	c #CCA287",
"k 	c #CEA488",
"l 	c #CFA589",
"m 	c #A2816C",
"n 	c #FFCEAC",
"o 	c #FFCCAA",
"p 	c #FECBA9",
"q 	c #FFCDAA",
"r 	c #FFCDAB",
"s 	c #E3B496",
"t 	c #BC957C",
"u 	c #ECBB9C",
"v 	c #F6C3A3",
"w 	c #826857",
"x 	c #FCC9A7",
"y 	c #765D4F",
"z 	c #E6B798",
"A 	c #806555",
"B 	c #CEA388",
"C 	c #C78B80",
"D 	c #B57B74",
"E 	c #A9806F",
"F 	c #C07E7B",
"G 	c #EBB29A",
"H 	c #FFCBAA",
"I 	c #F8ADA0",
"J 	c #D38285",
"K 	c #AF6D6F",
"L 	c #E69191",
"M 	c #FBBAA4",
"N 	c #FFCCA9",
"O 	c #FFCAA9",
"P 	c #F7B2A0",
"Q 	c #EF9A98",
"R 	c #EC9395",
"S 	c #EF9797",
"T 	c #F9B9A3",
"U 	c #E9B99A",
"V 	c #806755",
"W 	c #D0A58A",
"X 	c #FEC7A8",
"Y 	c #F8B5A1",
"Z 	c #F09898",
"` 	c #F09798",
" .	c #F9B8A2",
"..	c #FEC9A8",
"+.	c #F7B1A0",
"@.	c #E4B596",
"#.	c #B18D75",
"$.	c #CBA287",
"%.	c #EFBE9E",
"&.	c #FDC6A7",
"*.	c #F8B4A1",
"=.	c #F19B99",
"-.	c #F2A19B",
";.	c #F9B9A2",
">.	c #F7B3A0",
",.	c #CDA387",
"'.	c #745E4E",
").	c #FFCEAB",
"!.	c #F5AA9E",
"~.	c #F6B09F",
"{.	c #FABCA3",
"].	c #F19D99",
"^.	c #FCC4A6",
"/.	c #FEC7A7",
"(.	c #DEB194",
"_.	c #F9C7A5",
":.	c #FABDA4",
"<.	c #FDC5A7",
"[.	c #DCAF92",
"}.	c #997A66",
"|.	c #D9AC90",
"1.	c #FFCAA8",
"2.	c #F09998",
"3.	c #F19D9A",
"4.	c #F2A09A",
"5.	c #B18E75",
"6.	c #C9A186",
"7.	c #EEBE9E",
"8.	c #FBC0A5",
"9.	c #F5AC9E",
"0.	c #F3A49B",
"a.	c #EF9697",
"b.	c #EF9497",
"c.	c #E5B697",
"d.	c #B88C79",
"e.	c #AF7670",
"f.	c #EFB09C",
"g.	c #FFC6A8",
"h.	c #F4A99D",
"i.	c #EF9798",
"j.	c #EE9396",
"k.	c #F7B5A1",
"l.	c #AC8471",
"m.	c #AC6C6D",
"n.	c #EA9294",
"o.	c #F9BAA3",
"p.	c #FDC4A6",
"q.	c #F4A79C",
"r.	c #FDC3A6",
"s.	c #EFBF9F",
"t.	c #997865",
"u.	c #BB7877",
"v.	c #E58F91",
"w.	c #F4A89D",
"x.	c #F6AE9F",
"y.	c #72594C",
"z.	c #C07779",
"A.	c #F29699",
"B.	c #F3A39B",
"C.	c #EF9396",
"D.	c #F2A29B",
"E.	c #F1C0A0",
"F.	c #C9A085",
"G.	c #B08B75",
"H.	c #DC9F8F",
"I.	c #F4A49C",
"J.	c #F5C3A2",
"K.	c #C8A085",
"L.	c #9E7E69",
"M.	c #FABBA3",
"N.	c #F29F9A",
"O.	c #F8C6A5",
"P.	c #B8927A",
"Q.	c #AE8A74",
"R.	c #FDC9A7",
"S.	c #FBBDA4",
"T.	c #F19E9A",
"U.	c #F19C99",
"V.	c #A7866F",
"W.	c #E3B597",
"X.	c #FDC4A7",
"Y.	c #FABCA4",
"Z.	c #FCC3A6",
"`.	c #37302A",
" +	c #D0A68A",
".+	c #F9B7A2",
"++	c #ED9395",
"@+	c #EB9192",
"#+	c #EF9897",
"$+	c #CFA489",
"%+	c #E58B8B",
"&+	c #DB807D",
"*+	c #EB9292",
"=+	c #352B28",
"-+	c #C88B81",
";+	c #FCBAA4",
">+	c #FEC8A8",
",+	c #F3A49C",
"'+	c #EB9092",
")+	c #E28887",
"!+	c #DD8481",
"~+	c #EC9D93",
"{+	c #A7846F",
"]+	c #B57974",
"^+	c #D9958B",
"/+	c #FAB9A3",
"(+	c #EC9294",
"_+	c #DF8584",
":+	c #E78B8D",
"<+	c #F3A29B",
"[+	c #B26D70",
"}+	c #9D6263",
"|+	c #B79279",
"1+	c #A6706B",
"2+	c #DB8B8B",
"3+	c #DF8D8D",
"4+	c #EA9995",
"5+	c #F09B99",
"6+	c #EE9496",
"7+	c #FBBEA4",
"8+	c #AC6B6D",
"9+	c #E99193",
"0+	c #C79C84",
"a+	c #724B4A",
"b+	c #79504E",
"c+	c #D6A38C",
"d+	c #FFC8A8",
"e+	c #F09A98",
"f+	c #FABAA3",
"g+	c #E68F91",
"h+	c #D1A689",
"i+	c #5C403D",
"j+	c #B47372",
"k+	c #EBB39A",
"l+	c #F09A99",
"m+	c #F5AD9E",
"n+	c #F2A19A",
"o+	c #714B4A",
"p+	c #E08D8E",
"q+	c #F8AEA0",
"r+	c #FCC1A5",
"s+	c #EF9397",
"t+	c #916A5E",
"u+	c #D18484",
"v+	c #F5AA9D",
"w+	c #F5AB9E",
"x+	c #DEB093",
"y+	c #8F675D",
"z+	c #C97D7F",
"A+	c #F19999",
"B+	c #735A4D",
"C+	c #C1787A",
"D+	c #F4AA9D",
"E+	c #F4C2A1",
"F+	c #B9927A",
"G+	c #B16E70",
"H+	c #D58587",
"I+	c #F09697",
"J+	c #E78C8E",
"K+	c #E78D8E",
"L+	c #B47973",
"M+	c #A36667",
"N+	c #DE8A8C",
"O+	c #ED9496",
"P+	c #EA9192",
"Q+	c #DD8381",
"R+	c #EC9293",
"S+	c #A56F6A",
"T+	c #BC7577",
"U+	c #935C5D",
"V+	c #ED9396",
"W+	c #EA9091",
"X+	c #DA807D",
"Y+	c #DF8583",
"Z+	c #DF8483",
"`+	c #95625F",
" @	c #C89D84",
".@	c #A26D67",
"+@	c #996061",
"@@	c #C0787A",
"#@	c #BF7879",
"$@	c #B56D6D",
"%@	c #DC8280",
"&@	c #E38888",
"*@	c #F09698",
"=@	c #E88E8E",
"-@	c #E08584",
";@	c #B89279",
">@	c #AE7E71",
",@	c #BF7779",
"'@	c #AF7F72",
")@	c #A17463",
"!@	c #B36865",
"~@	c #E78F90",
"{@	c #F19699",
"]@	c #E48A89",
"^@	c #D37873",
"/@	c #E08685",
"(@	c #E88E8F",
"_@	c #D6AA8E",
":@	c #806455",
"<@	c #D9AC8F",
"[@	c #946B60",
"}@	c #D0746F",
"|@	c #D0746E",
"1@	c #EA9090",
"2@	c #FAC7A6",
"3@	c #966D62",
"4@	c #C87D7E",
"5@	c #EE9597",
"6@	c #D27671",
"7@	c #CF736D",
"8@	c #D17570",
"9@	c #D47975",
"0@	c #D5AA8D",
"a@	c #AB7C6F",
"b@	c #F19698",
"c@	c #DD8280",
"d@	c #DC817F",
"e@	c #D47874",
"f@	c #CE726C",
"g@	c #C1797B",
"h@	c #C3797B",
"i@	c #D88485",
"j@	c #DE8280",
"k@	c #CB716B",
"l@	c #AF615C",
"m@	c #C16B66",
"n@	c #D1746E",
"o@	c #D0736E",
"p@	c #4B3833",
"q@	c #553531",
"r@	c #A95F59",
"s@	c #C87069",
"t@	c #B76962",
"u@	c #8A6154",
"v@	c #A8655D",
"w@	c #C36D67",
"x@	c #C76F68",
"y@	c #C86F68",
"z@	c #CC726B",
"A@	c #4D382F",
"B@	c #804B3D",
"C@	c #9B594A",
"D@	c #8D5146",
"E@	c #865F52",
"F@	c #D6A98D",
"G@	c #A67F6B",
"H@	c #7F483F",
"I@	c #A25C4D",
"J@	c #A35D4F",
"K@	c #BE6B62",
"L@	c #CE736C",
"M@	c #CD726C",
"N@	c #4E362E",
"O@	c #8C5242",
"P@	c #985847",
"Q@	c #8B5141",
"R@	c #805545",
"S@	c #A07D68",
"T@	c #8B6654",
"U@	c #9E543A",
"V@	c #C1623F",
"W@	c #A05945",
"X@	c #A35E51",
"Y@	c #AE6358",
"Z@	c #AE6357",
"`@	c #AD6257",
" #	c #AD6358",
".#	c #A3806A",
"+#	c #7E5042",
"@#	c #8D5242",
"##	c #995947",
"$#	c #915444",
"%#	c #6F4236",
"&#	c #834D3F",
"*#	c #BB6142",
"=#	c #D9693C",
"-#	c #A75B44",
";#	c #AB5C43",
">#	c #9B5844",
",#	c #B25E42",
"'#	c #B96041",
")#	c #AA5C43",
"!#	c #A65B44",
"~#	c #D8693C",
"{#	c #ECBC9D",
"]#	c #957662",
"^#	c #8B5142",
"/#	c #8A5041",
"(#	c #895041",
"_#	c #8F5444",
":#	c #BA6142",
"<#	c #D8693D",
"[#	c #A95C44",
"}#	c #C9653F",
"|#	c #CE663E",
"1#	c #B35F42",
"2#	c #DA6A3C",
"3#	c #E46D3A",
"4#	c #CD663F",
"5#	c #B45F42",
"6#	c #D96A3C",
"7#	c #BA6042",
"8#	c #473029",
"9#	c #442C26",
"0#	c #513128",
"a#	c #7F4B3D",
"b#	c #AB5C44",
"c#	c #CB653F",
"d#	c #E16C3B",
"e#	c #DC6A3C",
"f#	c #E36D3A",
"g#	c #E56D3A",
"h#	c #E06C3B",
"i#	c #DC6B3C",
"j#	c #B96042",
"k#	c #A88670",
"l#	c #543327",
"m#	c #A9512E",
"n#	c #A3573F",
"o#	c #B86042",
"p#	c #DF6B3B",
"q#	c #D1673E",
"r#	c #DB6A3C",
"s#	c #E5B698",
"t#	c #BA8B71",
"u#	c #A75433",
"v#	c #DA6838",
"w#	c #CC663F",
"x#	c #BE6241",
"y#	c #B68A71",
"z#	c #A3502D",
"A#	c #DF6B39",
"B#	c #B65F42",
"C#	c #DE6B3B",
"D#	c #DD6B3B",
"E#	c #FEC9A7",
"F#	c #E49673",
"G#	c #C06241",
"H#	c #C16241",
"I#	c #F09973",
"J#	c #E56E3A",
"K#	c #E66E3A",
"L#	c #DF6C3B",
"M#	c #C26340",
"N#	c #D5683D",
"O#	c #F5AF8C",
"P#	c #EB8A62",
"Q#	c #E56F3D",
"R#	c #C8643F",
"S#	c #BC6141",
"T#	c #D6693D",
"U#	c #DD6B3C",
"V#	c #F1AD8B",
"W#	c #DB6E42",
"X#	c #C17154",
"Y#	c #A56B57",
"Z#	c #A85C45",
"`#	c #AA5C44",
" $	c #A85D45",
".$	c #E4AD8F",
"+$	c #AD664F",
"@$	c #AD664E",
"#$	c #DCA588",
"$$	c #D5A387",
"%$	c #A95D48",
"&$	c #BA6141",
"*$	c #A96049",
"=$	c #F3C0A0",
"-$	c #DFAC8F",
";$	c #F6C2A1",
">$	c #A95D47",
",$	c #B76042",
"'$	c #A95F48",
")$	c #ECB99A",
"!$	c #C98E73",
"~$	c #CA6E4C",
"{$	c #CA653F",
"]$	c #F0BC9D",
"^$	c #B1755E",
"                                                    . + + @ # $ $ # @ + + .                                                     ",
"                                                    % & * = - ; ; - = * & %                                                     ",
"                                              > , ' ) ! ~ { ]     ] { ~ ! ) ' , >                                               ",
"                ^ ^ ^               / ( _ _ : < [ } | 1 2 + 3     3 + 2 1 | } [ 4 5 6 _ ( /                                     ",
"                ^ ^ ^             . 7 8 9 0 } a b c d                     d c b e f g 9 8 7 .                                   ",
"                ^ ^ ^           . h i j k l m } c n o                     o n c } m l k j i h .                                 ",
"          ^ ^ ^               / 7 i ] p q r s t d o                         o d t s r q p ] i 7 /                               ",
"          ^ ^ ^     / ( _ u v ( w j p       . x p                             p x .       p j w ( v u _ ( /                     ",
"          ^ ^ ^   . 7 8 9 y t z A ' q                                                     q ' A z t y 9 8 7 .                   ",
"                . h i j B C D E F G o                                                     o G F E D C B j i h .                 ",
"              / 7 i ]   H I J K L M N                                                     N M L K J I H   ] i 7 /               ",
"              ( w j p   O P Q R S T N                                                     N T S R Q P O   p j w (               ",
"              U V W q     X Y Z `  .            ..+.P O                 O P +...             .` Z Y X     q W V U               ",
"            @.#.$.%.N     N &.*.=.-.;.      N X P >.                        >.P X N       ;.-.=.*.&.N     N %.$.#.@.            ",
"            ,.'.%.).        N X P !.~.{...o &.*.].^.                        /.].*.&.o ..{.~.!.P X N         ).%.'.,.            ",
"            , [ (._.            O O  .-.:.<.Y Z `                           O ` Z Y <.:.-. .O O             _.(.[ ,             ",
"            / [.}.|.o       O 1.O O  .2.3.4.=.^ `                             ` ^ =.4.3.2. .O O 1.O       o |.}.[./             ",
"            z 5.6.7.N       8.9.9.9.0.a.b.b.b.^ `                           O ` ^ b.b.b.a.0.9.9.9.O       N 7.6.5.z             ",
"          c.d.e.f.g.        8.h.i.j.b.^ ^ ^ ^ ^ a.                          k.a.^ ^ ^ ^ ^ b.j.i.h.O         g.f.e.d.c.          ",
"      x ( l.m.n.2.o.N         p.q.Z ^ ^ ^ ^ ^ ^ ^ ^ O                     r.^ ^ ^ ^ ^ ^ ^ ^ Z q.p.        N o.2.n.m.l.( x       ",
"      s.t.u.v.^ `  .          O p.w.b.^ ^ ^ ^ ^ ^ ^ 2.w.              O x.2.^ ^ ^ ^ ^ ^ ^ b.w.p.O            .` ^ v.u.t.s.      ",
"      : y.z.A.^ a.B.T   N       O 9.C.^ ^ ^ ^ ^ ^ b.D.                  X D.b.^ ^ ^ ^ ^ ^ C.9.O       N   T B.a.^ A.z.y.:       ",
"    E.F.G.H.I.^ ^ b.B. .T p.    O ;.B.a.^ b.b.b.a.0.o.                    o.0.a.b.b.b.^ a.B.;.O     p.T  .B.b.^ ^ I.H.G.F.E.    ",
"  J.K.L.(   M.N.S ^ a.2.-.:.N        .i.^ =.4.3.Z P &.                    &.P Z 3.4.=.^ i. .      N :.-.2.a.^ S N.M.  ( L.K.J.  ",
"O.P.Q.( R.N ..S.T.b.b.3.:...        ;.2.2.O     P U.P .                 ..P U.4.      P 2.;.        ..:.3.b.b.T.S...N R.( Q.P.O.",
"V.) W.      N X.N.b.b.4.<.o     O  .~.;.o.          >.+.                +.>. .Y.      Z.;.~. .O     o <.4.b.b.N.X.N       W.) V.",
"`. +r       N p.N.b.b.U.Y <.    O .+ .  N           . P                 P X           N    ..+O     <.Y U.b.b.N.p.N       r  +`.",
"`.l q       N p.N.b.++@+#+o.N     O O                 O                 O                 O O     N o.#+@+++b.N.p.N       q l `.",
"`.$+o       N p.-.^ %+&+*+ .                                                                         .*+&+%+^ -.p.N       o $+`.",
"=+-+;+  N N N >+M.,+'+)+!+~+T                                                                     T ~+!+)+'+,+M.>+N N N   ;+-+=+",
"{+]+^+ .M /+8.  O 9.b.(+_+:+<+M...N     N             N                 N             N     N ..M.<+:+_+(+b.9.O   8./+M  .^+[+}+",
"O.|+1+2+3+4+>.O O P 5+^ 6+5+=.N.7+..  O <.>+        >+<.O             O <.>+        >+<.O   ..7+N.=.5+6+^ 5+P O O >.4+3+2+1+8+9+",
"  J.0+a+b+c+d+    X *.2.2.Y Y e+N.M.  Z.w.f+      N M.h.<.N         N <.h.M.N       f+w.Z.  M.N.e+Y Y 2.2.*.X     d+c+b+a+0+g+^ ",
"    h+i+j+k+q     N <.o.o.<.&.*.l+D.m+w.2.D.T     N  .n+p.N         N p.n+ .N     T D.2.w.m+D.l+*.&.<.o.o.<.N     q k+j+i+h+    ",
"    B o+p+q+r+        N N   N X +.].s+b.^ b.B.M.>+r+9.].*.&.N N N N &.*.].9.r+>+M.B.b.^ b.s+].+.X N   N N         r+q+p+o+B     ",
"    , t+u+n.v+p.O               ..w+b.^ ^ ^ ^ N.Y.!.^ ^ Z Y X.p.p.X.Y Z ^ ^ !.Y.N.^ ^ ^ ^ b.w+..              O p.v+n.u+t+,     ",
"    > x+y+z+A+q.p.              ..w+b.^ ^ ^ ^ S ].2.^ ^ ^ =.N.N.N.N.=.^ ^ ^ 2.].S ^ ^ ^ ^ b.w+..              p.q.A+z+y+x+>     ",
"      : B+C+A.Z D+r+N N N N N X +.T.^ ^ ^ ^ ^ ^ b.^ ^ ^ ^ b.b.b.b.b.b.^ ^ ^ ^ b.^ ^ ^ ^ ^ ^ T.+.X N N N N N r+D+Z A.C+B+:       ",
"      E+F+G+H+^ I+9.o.T T T o.*.5+J+K+^ ^ ^ ^ ^ ^ ^ ^ ^ ^ ^ ^ ^ ^ ^ ^ ^ ^ ^ ^ ^ ^ ^ ^ ^ ^ K+J+5+*.o.T T T o.9.I+^ H+L+F+E+      ",
"        1 8+M+N+O+` ` ` ` ` ` a.P+Q+_+6+^ ^ ^ ^ ^ R+R+^ ^ ^ ^ ^ ^ ^ ^ ^ ^ R+R+^ ^ ^ ^ ^ 6+_+Q+P+a.` ` ` ` ` ` O+N+S+|+1         ",
"          g+T+U+N+O+V+^ ^ V+V+W+X+)+(+^ ^ ^ ^ ^ 6+Y+Z+++^ ^ ^ ^ ^ ^ ^ ^ ++Z+Y+6+^ ^ ^ ^ ^ (+)+X+W+V+V+^ ^ V+O+N+`+ @J.          ",
"            E. @.@+@@@^ ^ #@$@%@&@@+*@^ ^ ^ ^ ^ ^ =@-@_+(+*@^ ^ ^ ^ *@(+_+-@=@^ ^ ^ ^ ^ ^ *@@+&@%@$@#@^ ^ @@+@.@ @E.            ",
"              J.;@* >@,@,@'@)@!@~@{@^ ^ ^ ^ ^ ^ ^ *@]@^@/@]@(@^ ^ (@]@/@^@]@*@^ ^ ^ ^ ^ ^ ^ {@~@!@)@'@,@,@>@* ;@J.              ",
"                x 3 _@:@:@<@7 [@u+n.^ ^ ^ ^ ^ ^ ^ (+/@}@|@|@X+1@1@X+|@|@}@/@(+^ ^ ^ ^ ^ ^ ^ n.u+[@7 <@:@:@_@3 x                 ",
"                    / ( ( 1 2@< 3@4@5@^ ^ ^ ^ 6+++Z+6@7@7@7@8@9@9@8@7@7@7@6@Z+++6+^ ^ ^ ^ 5@4@3@< 2@1 ( ( /                     ",
"                              2@0@a@@@^ b@*@(@c@d@e@f@7@7@7@7@f@f@7@7@7@7@f@e@d@c@(@*@b@^ @@a@0@2@                              ",
"                                . h >@g@h@i@j@k@l@m@n@o@o@7@7@7@7@7@7@o@o@n@m@l@k@j@i@h@g@>@h .                                 ",
"                                    B p@q@r@s@t@u@v@w@x@y@z@7@7@7@7@z@y@x@w@v@u@t@s@r@q@p@B                                     ",
"                                    ' A@B@C@D@E@F@G@H@I@J@K@L@M@M@L@K@J@I@H@G@F@E@D@C@B@A@'                                     ",
"                                    k N@O@P@Q@R@S@T@U@V@W@X@Y@Z@`@ #X@W@V@U@T@S@R@Q@P@O@N@k                                     ",
"                                    % .#+#@###$#%#&#*#=#-#;#;#>#,#'#)#!#~#*#&#%#$###@#+#.#%                                     ",
"                                      {#]#+#^#/#(#_#:#<#[#}#|#1#2#3#4#5#6#7#_#(#/#^#+#]#{#                                      ",
"                                      3 {#.#8#9#0#a#:#~#b#c#d#e#f#g#h#i#h#j#a#0#9#8#.#{#3                                       ",
"                                          z k#l#m#n#o#p#q#r#g#g#3#3#3#g#f#o#n#m#l#k#z                                           ",
"                                        . s#t#u#v#w#x#|#d#g#g#3#3#g#g#h#|#x#w#v#u#t#s#.                                         ",
"                                        2 y#z#A#3#3#|#B#e#C#D#3#3#D#C#e#B#|#3#3#A#z#y#2                                         ",
"                                        E#F#v#3#3#3#h#e#p#G#H#f#f#H#G#p#e#h#3#3#3#v#F#E#                                        ",
"                                        E#I#J#3#3#g#K#L#G#M#N#3#3#N#M#G#L#K#g#3#3#J#I#E#                                        ",
"^ ^ ^                                   1.O#P#Q#3#N#c#R#S#T#U#c#c#U#T#S#R#c#N#3#Q#P#O#1.                                        ",
"^ ^ ^                                       V#W#~#X#Y#Z#~#p#}#`#`#}#p#~# $Y#X#~#W#V#                                  ^ ^ ^     ",
"^ ^ ^                                       .$+$@$#$$$%$~#H#&$~#~#&$H#~#*$$$#$@$+$.$                                  ^ ^ ^     ",
"                                            =$-$-$;$-$>$~#,$B#f#f#B#,$~#'$-$;$-$-$=$                                  ^ ^ ^     ",
"                                                    )$!$~$G#{$f#f#{$G#~$!$)$                                                ^ ^ ",
"                                                      ]$^${$3#3#3#3#{$^$]$                                                  ^ ^ "};
