/* XPM */
static char *deebd3223fc14820877afad3cdc936898QsYssivDwWeVsCW[] = {
/* columns rows colors chars-per-pixel */
"64 64 253 2 ",
"   c #070105",
".  c #160608",
"X  c #170A15",
"o  c #140C17",
"O  c #370302",
"+  c #2B1011",
"@  c #261A26",
"#  c #311E2A",
"$  c #322834",
"%  c #251C26",
"&  c #490503",
"*  c #580503",
"=  c #50180E",
"-  c #680402",
";  c #760703",
":  c #7A1605",
">  c #70190B",
",  c #582517",
"<  c #702212",
"1  c #4D2E2D",
"2  c #6E372A",
"3  c #794539",
"4  c #3A354A",
"5  c #453748",
"6  c #3D536D",
"7  c #394C69",
"8  c #544858",
"9  c #765051",
"0  c #44556C",
"q  c #49586B",
"w  c #565A6C",
"e  c #4C5C73",
"r  c #485874",
"t  c #565C77",
"y  c #464C6B",
"u  c #675A67",
"i  c #745E67",
"p  c #625F78",
"a  c #586179",
"s  c #4D6279",
"d  c #6A616C",
"f  c #78626A",
"g  c #686577",
"h  c #776777",
"j  c #860702",
"k  c #861904",
"l  c #951B06",
"z  c #910D07",
"x  c #B01205",
"c  c #8A2409",
"v  c #9C2B04",
"b  c #962705",
"n  c #9A360C",
"m  c #872A15",
"M  c #973B16",
"N  c #8F3015",
"B  c #A52906",
"V  c #A6360A",
"C  c #B73707",
"Z  c #B4300F",
"A  c #863C26",
"S  c #CB1104",
"D  c #ED1804",
"F  c #C82806",
"G  c #CE360C",
"H  c #F03105",
"J  c #99421A",
"K  c #8C401E",
"L  c #B7430D",
"P  c #A5481A",
"I  c #B84614",
"U  c #B34C17",
"Y  c #994826",
"T  c #864837",
"R  c #944B34",
"E  c #9A543A",
"W  c #894429",
"Q  c #A74C27",
"!  c #AF542F",
"~  c #B96638",
"^  c #C94509",
"/  c #C74915",
"(  c #C95318",
")  c #D75617",
"_  c #D54C0D",
"`  c #ED510D",
"'  c #D57016",
"]  c #F16F10",
"[  c #C55627",
"{  c #D45927",
"}  c #C94C32",
"|  c #D7672A",
" . c #DA6A36",
".. c #D9753A",
"X. c #CF6D2B",
"o. c #E5743A",
"O. c #F67939",
"+. c #EC6B2C",
"@. c #F25824",
"#. c #9A5849",
"$. c #895851",
"%. c #A45C45",
"&. c #9C6359",
"*. c #87625A",
"=. c #A8685B",
"-. c #B56B50",
";. c #88666B",
":. c #986A67",
">. c #876B76",
",. c #967276",
"<. c #A66C66",
"1. c #B67568",
"2. c #AC7671",
"3. c #855E63",
"4. c #D27550",
"5. c #E77A47",
"6. c #EB7B50",
"7. c #CC7B69",
"8. c #F59018",
"9. c #F48D31",
"0. c #EEAA26",
"q. c #F6CE30",
"w. c #FFFF3B",
"e. c #B9847A",
"r. c #D68951",
"t. c #EB8449",
"y. c #E98758",
"u. c #F48959",
"i. c #F59051",
"p. c #F9AC4A",
"a. c #DA8468",
"s. c #CD8677",
"d. c #E98966",
"f. c #F58D66",
"g. c #EB9568",
"h. c #FA956B",
"j. c #F89669",
"k. c #E48C76",
"l. c #FC9C73",
"z. c #F79978",
"x. c #ED9479",
"c. c #FAA57A",
"v. c #F7AE73",
"b. c #DBA55D",
"n. c #F7CE4F",
"m. c #FAD172",
"M. c #F4E865",
"N. c #595D82",
"B. c #4B5A83",
"V. c #5B6686",
"C. c #57658D",
"Z. c #676889",
"A. c #766D89",
"S. c #69718D",
"D. c #7A738B",
"F. c #666D95",
"G. c #687397",
"H. c #787795",
"J. c #716B93",
"K. c #6B77A3",
"L. c #757CA6",
"P. c #665E83",
"I. c #86768B",
"U. c #967889",
"Y. c #867A97",
"T. c #957D97",
"R. c #A57B88",
"E. c #B37F8A",
"W. c #897EA2",
"Q. c #7981AC",
"!. c #7C86B3",
"~. c #99849B",
"^. c #8D8298",
"/. c #A6848B",
"(. c #B88487",
"). c #A88A98",
"_. c #B88997",
"`. c #B3929A",
"'. c #8884A7",
"]. c #9889A6",
"[. c #858AB6",
"{. c #8C92BB",
"}. c #9795B8",
"|. c #9D8FB0",
" X c #A98CA6",
".X c #B78DA4",
"XX c #AA91A8",
"oX c #B796A9",
"OX c #A896B8",
"+X c #B69BB7",
"@X c #B7A3BB",
"#X c #C68A89",
"$X c #DA948A",
"%X c #C68C94",
"&X c #CA9398",
"*X c #D89A99",
"=X c #D18F87",
"-X c #EC9A8B",
";X c #D4A19E",
":X c #FAA889",
">X c #FCB687",
",X c #F4A898",
"<X c #FCB698",
"1X c #EBA49B",
"2X c #CA99A6",
"3X c #D59BA4",
"4X c #C39DB2",
"5X c #DAA5A8",
"6X c #C8A5B8",
"7X c #D7AAB8",
"8X c #D0AAB0",
"9X c #E7A7A6",
"0X c #F2ABA7",
"qX c #FBB9A7",
"wX c #E7B4B8",
"eX c #F7BABA",
"rX c #EAAFB1",
"tX c #E79FA0",
"yX c #FCCE95",
"uX c #FCEC94",
"iX c #FCC7B8",
"pX c #FDCEAB",
"aX c #FDF1AF",
"sX c #9699C6",
"dX c #AC9DC1",
"fX c #9CA4CD",
"gX c #AAA7C8",
"hX c #B9A6C6",
"jX c #B2B0D6",
"kX c #B7BBE2",
"lX c #C6AAC5",
"zX c #D5AEC4",
"xX c #D8B4C7",
"cX c #C8B9D8",
"vX c #D3B5D3",
"bX c #E4B8CA",
"nX c #EFBCCB",
"mX c #CEBEE2",
"MX c #D2C2DB",
"NX c #F9C6C7",
"BX c #ECC5D5",
"VX c #F6C9D7",
"CX c #FCD5D8",
"ZX c #F6CFCA",
"AX c #FFE6CF",
"SX c #D6C7E7",
"DX c #D0CCF1",
"FX c #FBD8E6",
"GX c #EFD1EC",
"HX c #FDE4E8",
"JX c #FBE6FA",
"KX c #FEFBFC",
"LX c #FDF6EA",
/* pixels */
"e 0 r r e e t t t t a a t N.C.Z.F.G.K.L.L.L.K.K.K.K.G.F.F.F.G.K.C.G.Q.G.K.K.K.G.G.G.G.F.V.V.V.V.B.s s r r r r e r r r r r r r e ",
"y y y r r r r t t V.V.t t t N.V.Z.F.G.G.K.L.L.K.K.G.F.C.r B.K.r % 4 G.K.G.K.F.F.S.F.C.V.V.V.V.B.e r r r 6 6 6 6 0 6 6 6 6 6 6 7 ",
"t r r t t t t N.N.V.V.V.V.N.N.V.Z.Z.G.L.Q.L.L.L.L.G.F.C.y 7 y % % $ t {.K.C.F.F.G.F.F.F.F.V.V.a t e r r 6 6 6 0 r 0 0 6 6 6 6 0 ",
"t t t t t N.N.N.Z.Z.Z.Z.Z.Z.V.V.Z.Z.H.L.!.!.!.Q.L.L.F.F.!.y % % % $ 4 g [.K.C.F.F.F.F.F.V.V.V.a s e e q 0 0 q q r r 0 0 0 0 0 e ",
"t t t V.V.Z.Z.Z.Z.Z.S.Z.Z.Z.Z.Z.Z.J.L.Q.[.[.[.!.!.[.G.L.{.4 o @ X % $   g fXQ.L.G.G.G.S.F.V.a a a s e q 0 0 0 e 0 q 0 0 0 q q e ",
"t t t Z.F.Z.Z.Z.Z.Z.S.J.J.Z.Z.Z.J.H.L.Q.[.[.{.sX{.sX{.G.8 + $ 4 @ o 5 o % sXfX[.L.K.G.G.G.Z.V.a a a e e q 0 0 q q q 0 0 0 0 0 e ",
"Z.p Z.Z.Z.Z.Z.Z.Z.S.S.J.J.J.Z.J.H.H.'.'.[.[.{.sXsXfXjXS.# @ 8 4 # o o o o L.fX[.Q.L.G.G.G.S.Z.V.V.a a e q q e e e e q 0 0 0 0 w ",
"Z.P.Z.Z.Z.J.J.J.A.J.H.H.H.J.J.H.L.W.'.[.{.{.{.sXjXjXkXS.o $ 4 $ X       $ {.{.[.Q.Q.H.H.S.S.S.Z.Z.a a s e e e e e e q q q q 0 w ",
"Z.Z.Z.A.A.A.A.A.D.H.H.H.H.H.H.Y.W.'.'.[.{.{.}.sXjXkXkXsX@ @ 8 @     . X $ '.{.}.[.Q.H.H.G.G.S.Z.Z.Z.a a e w t t t e q q q q q a ",
"g g A.A.A.A.A.D.D.H.H.Y.W.W.W.'.'.'.'.{.}.}.sXsXfXgXkXjX# @ 8 o 8 g 8 $ 4 H.'.jX}.H.H.H.H.G.S.S.Z.g a t t w a a w w w w q q q w ",
"A.Z.A.A.A.A.D.D.D.Y.Y.W.W.'.'.'.'.].'.}.}.dXgXgXgXgXDX}.    o $ jXDXD.$ $ t gXjX'.'.Y.H.H.D.S.S.Z.Z.a a w w a a w w w w w w w w ",
"A.A.A.D.I.I.D.D.Y.Y.Y.W.W.].].].|.|.|.}.dXgXgXgXkXkXDXw   . X H.jXjX].# X 8 }.'.}.}.Y.D.H.H.H.S.Z.Z.Z.g a t a a g t a a w w w w ",
"I.A.D.D.D.Y.Y.Y.Y.Y.W.'.'.].].|.|.|.OXdXgXgXgXgXcXDXDXw   X 8 cXgXcX^.X   8 gXgXgX'.^.^.Y.H.H.S.S.Z.g g g g g g g g a a w w w w ",
"I.D.I.I.I.Y.I.Y.T.T.T.'.].].OXOXOXOXdXhXjXjXjXjXcXDXDXD.  X h jXhX^.4   $ u MXSX'.Y.].'.^.Y.H.D.A.A.g g g g g g g g g g g w w p ",
"I.I.I.I.T.T.T.T.T.T.^.^.].|.OXOXdXOXdXhXcXcXcXmXSXSXGXY.  @ ].OXI.$ @ @ h 8 A.'.Y.}.|.'.^.Y.I.D.A.h A.g g g g g g g g g d w w u ",
"I.I.I.T.T.].~.T.~.^.T.~.]. XOX+XdX+X+XhXmXSXSXDXSXSXJX].  % '.hXu @ $ @ 8 h ].^.OXOX].].Y.Y.I.D.D.h h A.h g g g g h h d d d u u ",
"T.I.T.T.T.].].].].].].]. XXXOX+X+X+X@XhXlXMXSXDXSXMXSXlX#   8 XXh 8 $ X + u cXhX|.].].].~.Y.I.I.D.A.A.A.h g d d g h h h d u u d ",
"T.T.T.T.T.].].]. X X X XXXXX+XhXhX@XhXlXlXcXmXSXSXcXjXGXi . @ 8 8 5 $ $ + u @X|.].].].].~.Y.Y.I.I.D.A.h h h d g h h h h d u u d ",
"T.T.T.~.~. X X X XXXXXXXXXOX+XlXlXlXlXvXlX~.~.6XGXMX+X@XXX+ 1 5 $ 1 1 # + >.hX].].].].].].^.Y.I.I.I.A.h h d d d h h h h d u u d ",
"U.U.~. X X X XXXXXXXoXoXoX+X+XlXlXvXvXlXXX+X>.i cXJXu . u # # $ 8 1 + . 1 XXhXXX X~.~.~.].~.^.I.I.I.I.h h f d h h h h h d u u i ",
"U.U.~. X X XXX XXXXXXXXXoX+XlXlXvXvXlXXX6XSXGX/.~.SX# . . @ $ 1 2 +     U.mX+X+XXX).~.~.~.~.~.T.U.I.I.>.h f f h h h h h i i i i ",
"U.U.U.).). XXXXX X.X.X.X.X+XlXzXvXvX+X6XvXmXvX).9 1 . + # + . , 2     u vXcXhXlXoX).~.).).).~.T.U.U.I.>.h h f h h h h h f i i f ",
"U.U.U.R.).`.`.`._._..X.X.X4XlXxXxX6X4XxXvX6X6X`.# . + 1 1 . . = & @ ).JXSXhXhXlX+XoXoXXXXXXX X~.~.U.U.I.>.>.i f >.>.>.>.f f i f ",
"R.R.R.R./._._._._._..X.X.X4X6XzXxXzXxXzX4X4XGX6X1 1 = 1 + . 2 W :.xXJXGXVXNXlXhX@XoX+X+XoXoXXX)././.U.U.>.>.f ;.;.>.>.>.>.f i f ",
"R.R.R././._._._._._..X.X.X4X7X7XzXxXxX7XzXBXGX>.2 1 # + . . < ,XJXFXBXMXCXCXzX6X+XoX4X6X+XoX`.`././.U.,.>.>.f ;.;.>.>.>.;.f i i ",
"R.R.R._._._._._._._._._.&X2X8X7XzXzXzXxXvXvX6X&.2 . + + . + > 7.FXGXBXVXFXVXbX6X4XoXoX+XoXoX`.`.)./.R.,.>.;.;.;.;.>.>.;.;.3.9 i ",
"E.E._._._._._.(.E.(._.%X2X2X2X7XxXxX7X7XzXzX:., , + O = O _.:Xv &XKXFXFXGXGXbXxXxX6XoXoXoX.X`.)./././.,.>.;.3.;.;.:.,.;.3.*.9 i ",
"(.E._._.%X_._.(.(.(.(.%X2X2X2X8XxXbX7X8XbXbX:.+ 1 = < c & CXAXn &XKXKXJXGXGXVXBXbXxX7X6XoX.X_././././.,.:.*.3.;.;.,.,.:.3.$.9 $.",
"(.(.%X%X#X(.%X2X2X%X%X%X%X&X2X2X7XxXbXbXBX5X3 , , O < & 9 KX*X* T $.,.wXJXJXFXVXnXbX7XzX7X;X;X*X(.R.2.,.:.:.:.:.:.,.,.:.*.$.9 9 ",
"(.(.#X%X%X%X&X&X2X2X&X%X&X3X7X7X7XxXVXGX8X<.2 3 , m k < VX7XJ M * - ; G j.JXJXGXVXBXBXbX7XwXqXqX*Xe.2.:.:.:.:.:.:.:.:.:.$.$.3 9 ",
"2.2.(.%X&X&X*X*X2X2X%X&X3X7XbXbXzXBXVXKXxXT R 3 = & - NX*Xn ~ m = x H S z 9.ZXJXVXCXCXbXxXxXwX5X=X(.2.<.:.:.<.<.<.<.:.&.$.$.3 $.",
"2.2.#X%X%X*X3X*X3X&X%X&X3X7XbXnXbXBXFXxX:.#.#.= = O Y d.I v.-.& = W 9.x * l  .JXJXCXNXBXxX7X8X2X%X(.2.<.:.&.<.<.<.<.<.&.$.$.T T ",
"1.1.#X%X&X3X;X*X;X*X*X*X5XwXnXVXBXVXJX`.<.1., & m a.:X[ ( 4.! ! l ~ uX@.F - C yXJXVXVXBXbXbX7X3X%X(.2.2.&.&.&.=.=.<.<.:.$.T T 3 ",
"1.1.s.=X*X5X3X*X1XwX5X*XrXwXNXNXnXVXFXCX$XR O > -XCXpX) j k [ v B x G ] ] S ) | iXFXNXBXbXnXbX7X3X%X(.2.&.#.#.=.=.=.<.&.#.T 2 3 ",
"1.7.s.=X*X5X5X*X$X*X*X5X5XwXCXHXCXCXJX(.K J c 4.HXqX! c : k G } x x } 0.' x ] b R CXVXwXwXBXbXwX5X&X#X<.#.#.&.=.<.<.=.#.#.T 2 T ",
"1.7.=X*X*X9X9XtX*X*X*X5X9XrXCXKXLXHXKX(.N U _ ,XLX5.j m / } c. .x } AXAX0.x H C b 1XNX5XwXwX7X5X5X&Xe.=.#.#.&.1.1.1.=.#.E T W W ",
"7.7.=X*X9X9X9X9X9XtX5X9XrXwXnXCXFXHXKX;Xc ( _ 7.KX5.x / C 4.pXm O > qXLXm.H ` ` F 7.nX5X5X9X*X*X=Xs.1.=.#.E #.<.1.1.=.#.R T W W ",
"s.s.=X*X9XrXrXrX0XtX9XrXeXeXNXFXFXJXKX#Xb 9.I l AX<X| I * ! >X< O - g.aXO.` 8.H z 4.,X$X*X*X=Xs.1.1.1.=.%.R E =.=.=.%.E R W A A ",
"s.=X$X*XtXrXrX9X9X9X9XrXeXNXCXFXFXHXJXHXg.+.Z ; k.iX9.o.O Q yXM * -  .yXi.] ] H B 6.-X$X$X=Xs.7.7.-.-.-.#.R R E E E E E R W A W ",
"s.=X=X=X*X0XrX0X9X9X9XrXeXNXVXCXHXHXFXKXAX) H j A aX+.B O + 5.[ * j { aXm.H H ' @.6.k.a.s.s.7.7.-.-.%.%.E E R Y Q E E R R R A A ",
"s.s.=X$XtX0X0X0X0X9X9XrXeXeXNXCXFXHXFXHXHX| H n O s.h.j O & * { I Z / uXp.H 0.n.+.f.7.4.4.a.7.4.-.~ ! E R R Y Q ! Q R R R Y A A ",
"=Xs.$X$X1X0X0X0X0X1X9X0XeXnXNXCXCXFXFXFXJX<XG B , . W  .Z D x O.9.b.9.] ` ` n.M.| h.d.4.4.a.7.-.~ ! ! Y W R Q Q Q Q Q Y Y Y A A ",
"$Xk.$X-X-X0X0X,X1X,X1X0XqXeXNXZXZXCXFXCXFXKXpXB x : . > l ; x / n U 8.8.] ] 0.' i.f.d.a.a.7.-.~ ! ! ! Q [ ! Q P P U ! ! Y Y K K ",
"k.k.$X-X-X1X,X,X:X,X0X,X0XqXeXNXNXZXCXCXCXHXLXc.F D x ; * X + O & F 8.0.8.q.q.+.6.f.g.k.s.7.-.! Q Q Y Q [ [ P J P Q ! ! Y Y K W ",
"k.k.k.x.-X-X,X,X-X-X,X,X,X,XqXiXNXNXNXZXZXZXZXAX>X` x ] q./ x V H H ] ` 0.q.M.v.5.u.d.a.k.a.4.! Q Y Y Y Y Y M M J Y Q Q Y Y M Y ",
"a.d.k.k.x.-X,X-Xz.z.x.-X-X,X<XiXHXiXqXiXNXZXZXiXpXv.G _ w.] ] 8.H H H S ] ] m.m.O.5.4.4.a.r.4.Q Q P J J Q Y M M M J Y Y Y Y M K ",
"a.a.d.k.x.-X:Xz.x.x.x.x.-X:X:XqXAXpXqXiXNXZXiXqX<X>Xv.o.0.q.8.F ; S H j ^ n.m.5.+.o.5. .4.4.~ U P J M M P Y M N n M J J J J M J ",
"7.6.d.k.x.z.z.z.h.f.x.x.z.z.:X>X<XiXiXiXNXpX<X>Xv.c.v.yXuXaXp.- O : @.F r.AXi.@.O.O.O.o.| X.[ U P P J M M J n c b n M M J M M J ",
"4.4.d.d.x.z.z.z.g.f.f.z.z.z.l.c.<XqXqXiXiXqX<X>Xc.c.c.yXaXm.Q - ; ; F ` n.m.@.O.O.O.O. .| | [ U L U P n n V n b b n n n M n n M ",
"4.4.6.d.f.f.h.f.f.f.j.h.z.z.l.l.z.:X:X<XqXqXqXqX<X>Xc.uXm.S * Z Z - x D 9.p.O.O.o.o.{ ) | | { ( I U L V n n n b b n V n n n n M ",
"4.5.6.y.d.f.f.d.f.f.f.j.l.l.h.h.h.l.:X<X<XqXqXeXqX<X>XaXp.x & < > & - D O.m.t.+.o.+.t.5.{ { { ( I I L V V V V v v V V V n v b M ",
"6.6.6.y.u.f.j.f.h.h.f.j.h.l.h.h.h.l.:X<XqX<X<X<XqX<X>XyXm.( z * & * & x ` p.i.+.+.) t.v.| { { / / I L L V V V B V V V V V b b N ",
"5.5.y.u.f.f.h.h.j.h.h.h.h.l.l.h.l.l.c.:X<X<X<X<X<X<Xc.>XaXm.` ; ; x ) S H p.p.O.) ) _ ) | ) ( / / L L L V V v v B V V V v b c N ",
"6.5.u.u.f.h.l.c.l.j.h.j.l.l.z.h.h.c.:Xc.:X<X<X<X<X,X>XpXuX9.S * - ) q.H H 9.i.+.` ) ) ) ) ) ) / / L C V V B b v v B V V v b b N ",
"6.6.u.f.f.h.l.c.l.l.h.h.l.l.l.l.h.z.c.c.:X<X<X:X:X:X:XaXm.D ; O V Q H H ` ] 9.] ` ` ) ) _ ) ) ) / L V V B v v v B B v B v b b N ",
"u.u.u.j.j.j.l.l.l.l.j.h.j.c.l.j.h.h.c.:X:X<X<X:X:Xc.j.uXr.x ; & c * x H ] ] ` ` _ _ ) ) _ ) ) ) ^ C Z B v b v v v v b v b b c m ",
"u.t.u.f.j.l.l.j.j.f.f.j.j.j.l.l.j.h.c.:X>X<X<X<XyX<X>XaXZ - - z j ; z ] 8.n.9.H G G ^ _ ) ) ) _ ^ C C B b b v B v b b b c l k c ",
"u.t.u.f.g.c.c.j.f.y.f.j.j.u.u.u.i.u.f.l.:X:X:Xc.>X<Xc.uXr.& * : j ; l q.n.M.i.F G G ^ _ _ ) ^ C C C Z B b c v B v v v l k k k m ",
"t.5.u.u.j.l.l.f.u.u.y.u.u.y.t.t.5.o.o.u.l.c.j.f.f.u.t.v.m.N & & * - - ~ m.] ` ) F G G ^ G ^ G C C Z B B c c c b b v b c k k : c ",
"5.o.t.u.u.f.j.f.d.y.y.y.y.y.5.5. . .o.5.f.g.t.| @.@.O.8.] G x - - F B j 9.q.8.] F _ ^ ^ ^ ^ C C B B v l k k k k l b l k k k : k ",
"5.o.5.t.t.y.u.u.y.y.y.u.g.d.5.o.| { |  . .| ^ F H H ] ] ` ` D z - ` ` S ' 9.H ] ' Z C C C C C B B B b k k k k k k l k k : : : : ",
"o.o.5.t.o.o.o.5.t.y.d.d.g.g.t.| ) / ( ) ( ^ B x x S ` ' ' ) H / ; C ' ( X.G H ] 8.x k b l B B B l b b k : k k k k k k : : : : : ",
"........ . .o. .y.g.d.y.g.y.| / ( / ( | / C Z B l z S _ _ G _ G l z G ] ) ) 8.' ' G l : k k k k k b b k : ; j k k k k : > : : : ",
"4...............4.y.y.r.r...[ X.X.X.U U [ I Z Z b > k Z F G F G F Z Z x G G ) / G B c < < < > c N n N c k k k c c c c k < : k m "
};
